<?xml version="1.0" encoding="UTF-8"?>
<svg width="38px" height="48px" viewBox="0 0 38 48" version="1.1" xmlns="http://www.w3.org/2000/svg" xmlns:xlink="http://www.w3.org/1999/xlink">
    <title>编组 5</title>
    <g id="阀门井监测系统" stroke="none" stroke-width="1" fill="none" fill-rule="evenodd">
        <g id="阀门井分布" transform="translate(-2183.000000, -2167.000000)">
            <g id="编组-5" transform="translate(2183.000000, 2167.000000)">
                <g id="编组-7备份">
                    <path d="M18.4818857,47.656875 L17.7426857,46.973758 L17.3787429,46.6337661 L17.3787429,46.6337661 L16.6621714,45.9569154 L16.3095429,45.6200566 L16.3095429,45.6200566 L15.6156,44.9494722 L14.9367429,44.2830652 L14.2729714,43.6208357 C13.9592797,43.3052739 13.6507588,42.991144 13.3474086,42.678446 L12.7476025,42.0549591 C12.2535094,41.5369776 11.7737795,41.0229735 11.3084127,40.5129468 L10.7568669,39.902824 C10.6660916,39.801455 10.5758909,39.7002452 10.4862647,39.5991944 L9.95540188,38.994799 C9.86807379,38.8943847 9.78132023,38.7941294 9.6951412,38.6940332 L9.18496133,38.0953653 C8.7655567,37.5980663 8.36051524,37.1047448 7.96983696,36.6154006 L7.50791735,36.0300968 C2.50263912,29.6127554 0,23.8884374 0,18.8571429 C0,8.44263043 8.44263043,0 18.8571429,0 L19.1689802,0.00252631838 C29.4396636,0.169049797 37.7142857,8.54677556 37.7142857,18.8571429 C37.7142857,23.8884374 35.2116466,29.6127554 30.2063684,36.0300968 L29.7444488,36.6154006 C29.3537705,37.1047448 28.948729,37.5980663 28.5293244,38.0953653 L28.0191445,38.6940332 C27.9329655,38.7941294 27.8462119,38.8943847 27.7588838,38.994799 L27.228021,39.5991944 C27.1383948,39.7002452 27.0481941,39.801455 26.9574188,39.902824 L26.405873,40.5129468 C25.9405062,41.0229735 25.4607763,41.5369776 24.9666832,42.0549591 L24.3668771,42.678446 C24.1646436,42.8869114 23.9601121,43.0960131 23.7532824,43.3057512 L23.4413143,43.6208357 L22.7775429,44.2830652 L22.0986857,44.9494722 L21.4047429,45.6200566 L21.0521143,45.9569154 L20.3355429,46.6337661 L19.9716,46.973758 L19.2324,47.656875 L18.8571429,48 L18.4818857,47.656875 Z" id="形状" fill="#E72B00" fill-rule="nonzero"></path>
                    <circle id="椭圆形" fill="#FFFFFF" cx="18.8571429" cy="18.8571429" r="15.4285714"></circle>
                </g>
                <path d="M23.5,8 C28.1944204,8 32,11.8055796 32,16.5 C32,21.0016108 28.5006068,24.6858945 24.0737285,24.980943 C22.6048016,27.9547528 19.5412473,30 16,30 C11.0294373,30 7,25.9705627 7,21 C7,16.0294373 11.0294373,12 16,12 C16.0958474,12 16.1913448,12.0014983 16.2864701,12.0044727 C17.7866766,9.59952477 20.4565438,8 23.5,8 Z M11.1649072,21.6543476 L9.76925626,21.6544912 C10.0852398,24.512043 12.3336488,26.7871384 15.1786888,27.1439831 L15.269689,27.1547188 L15.269762,25.7590653 C13.1473373,25.4555191 11.4685225,23.77675 11.1649072,21.6543476 Z M22.1546933,21.6544912 L20.7590424,21.6543476 C20.4595937,23.7476234 18.8224315,25.4093587 16.7413153,25.7457937 L16.6543476,25.7590424 L16.6544912,27.1546933 C19.511967,26.8387182 21.7870174,24.5904205 22.1439546,21.7454879 L22.1546933,21.6544912 Z M16,18.2307692 C14.4705961,18.2307692 13.2307692,19.4705961 13.2307692,21 C13.2307692,22.5294039 14.4705961,23.7692308 16,23.7692308 C17.5294039,23.7692308 18.7692308,22.5294039 18.7692308,21 C18.7692308,19.4705961 17.5294039,18.2307692 16,18.2307692 Z M23.5,9.21428571 C21.1057644,9.21428571 18.9812659,10.3691672 17.6531831,12.1522513 C21.834495,12.9281473 25,16.594402 25,21 C25,21.942477 24.8551312,22.8511182 24.5864468,23.7048702 C28.0947399,23.1809099 30.7857143,20.1547103 30.7857143,16.5 C30.7857143,12.4762111 27.5237889,9.21428571 23.5,9.21428571 Z M16,19.6153846 C16.764702,19.6153846 17.3846154,20.235298 17.3846154,21 C17.3846154,21.764702 16.764702,22.3846154 16,22.3846154 C15.235298,22.3846154 14.6153846,21.764702 14.6153846,21 C14.6153846,20.235298 15.235298,19.6153846 16,19.6153846 Z M16.6544912,14.7692563 L16.6543476,16.1649072 C18.747676,16.4643634 20.4094422,18.1016004 20.745819,20.1827912 L20.7590653,20.269762 L22.1547188,20.269689 C21.8354788,17.381706 19.5424425,15.0886013 16.6544912,14.7692563 Z M15.269689,14.7692308 C12.4120298,15.0851188 10.1368221,17.333571 9.77996684,20.1786864 L9.76923077,20.269689 L11.1648843,20.269762 C11.4642798,18.176359 13.1015462,16.5145171 15.182789,16.1781309 L15.269762,16.1648843 L15.269689,14.7692308 Z" id="形状结合" fill="#E72B00" fill-rule="nonzero"></path>
            </g>
        </g>
    </g>
</svg>